<?xml version="1.0" encoding="utf-8"?>
<!-- Generator: Adobe Illustrator 23.0.3, SVG Export Plug-In . SVG Version: 6.00 Build 0)  -->
<svg version="1.1" baseProfile="tiny" id="Layer_1" xmlns="http://www.w3.org/2000/svg" xmlns:xlink="http://www.w3.org/1999/xlink"
	 x="0px" y="0px" viewBox="0 0 300 300" xml:space="preserve">
<g transform="translate(0.000000,1065.000000) scale(0.100000,-0.100000)">
	<path d="M1482.35,9479.72c-9.67-1.71-22.98-6.27-28.28-15.21c-4.67-7.88-6.68-18.36-9.23-27.03c-3.21-10.89-6.13-21.88-8.72-32.93
		c-2.06-8.79-1.51-8.4-10.42-9.18c-10.33-0.91-20.61-2.35-30.86-3.92c-10.4-1.59-23.27-2.05-32.99-6.5
		c-6.41-2.93-7.32-7.86-7.14-14.5c0.2-7.26-0.41-22.53,6.97-26.52c11.46-6.21,31.51,7.02,42.33,10.8
		c8.38,2.92,16.75,4.66,25.51,5.86c-12.09-54.6-19.98-109.06-20.92-164.98c-0.87-51.49-2.99-103.31,7.94-153.92
		c3.11-14.43,6.03-33.73,18.45-43.51c9.74-7.67,31.53-8.29,42.31-2.51c13.99,7.5,10.49,22.37,8.62,35.15
		c-1.86,12.77-3,25.62-3.52,38.52c-1.57,38.49,0.3,77.25,2.16,115.69c1.69,34.92,4.37,69.8,9.19,104.44
		c2.3,16.53,5.05,32.99,8.13,49.38c1.55,8.26,3.11,16.54,4.86,24.76c0.59,2.79,0.92,9.65,3.41,11.6c3.69,2.89,15.71,1.28,19.91,1.41
		c19.87,0.63,39.75,0.97,59.63,1.27c5.83,0.09,22.94,3.1,27.06-0.77c3.9-3.66-0.31-14.94-1.1-19.29
		c-3.46-19.04-4.65-38.82-6.01-58.11c-2.37-33.64-4.04-67.6-4.76-101.32c-0.63-29.58-0.28-59.24,0.85-88.8
		c0.95-24.77,1.33-52.33,9.54-75.91c3.71-10.66,10.02-20.56,20.37-25.68c13.43-6.64,32.09-8.56,45.32-0.35
		c14.9,9.25,12.93,32.49,18.38,47.42c4.07,11.17,8.61,22.18,12.77,33.32c11.19,29.92,20.28,61.36,33.84,90.3
		c3.7,7.91,40.44,76.21,49.64,46.53c2.86-9.23,2.31-20.53,1.93-30.09c-0.68-17.06-2.73-34.03-3.95-51.05
		c-2.87-40.13-2.26-80.42,4.69-120.13c2.3-13.13,7.27-19.33,19.81-25c10.48-4.74,30.43-11.26,41.22-3.92
		c6.48,4.41,7.66,14.17,8.24,21.4c1.3,16.35,1.14,32.87,1.59,49.26c0.96,34.57,1.6,69.54,5.48,103.94
		c3.04,26.95,8.52,65.53-8.61,89.11c-18.37,25.28-61.48,30.13-86.29,12.3c-28.85-20.73-45.89-56.49-59.7-88.12
		c-7.64-17.51-14.46-35.43-21.2-53.31c-0.92-2.43-7.52-26.36-9.94-26.63c-2.36-0.26-3.98,65.42-4.13,71.44
		c-0.59,24.01,1.05,47.92,1.97,71.92c1.24,32.22,3.08,64.42,7.6,96.36c1.26,8.92,2.58,17.84,4.01,26.74
		c0.32,2.02,0.64,9.11,2.22,10.25c1.66,1.2,7.96,0.16,9.97,0.21c5.63,0.12,11.25,0.23,16.88,0.35c32.54,0.67,65.07,1.26,97.61,1.91
		c40.92,0.82,81.91,1.17,122.8,3.11c13.13,0.62,25.24,1.71,37.68,6.14c8.43,3,37.59,11.84,30.81,25.43
		c-8.54,17.12-31.38-1.51-42.05-5.42c-8.9-3.27-18.25-3.94-27.65-4.47c-64.84-3.65-130.08-2.69-195-3.91
		c-16.31-0.31-32.63-0.62-48.94-0.92c0.74,12.59,1.56,25.17,1.65,37.79c0.07,10.66,1.76,25.89-6.13,34.47
		c-14.39,15.65-47.63,4.67-59.07-9.69c-8.35-10.47-10.01-28.15-12.65-40.77c-1.14-5.43-0.87-14.02-3.17-19.11
		c-2.63-5.84-10.94-3.35-16.8-3.45c-21.85-0.36-43.72-0.77-65.57-0.88c-6.27-0.03-15.43-1.78-21.6-0.28
		c-3.75,0.91-3.62,0.07-4.16,3.88c-0.66,4.6,2.2,11.96,3.03,16.43c2.43,13.1,12,37.73,3.75,50.38
		C1514.47,9482.31,1493.88,9481.78,1482.35,9479.72z"/>
	<path d="M2226.39,9473.75c-14.47-5.06-9.23-24.41-6.61-35.86c5.23-22.87,14.73-44.62,25.31-65.47c4.35-8.56,8.84-17.06,13.48-25.46
		c1.7-3.08,6.47-15.69,10.06-17.13c3.53-1.41,7.3,6.06,10.05,9.57c16.44,20.94,32.61,42.11,48.51,63.46
		c6.3,8.46,13,16.88,15.98,27.21c4.64,16.09,1.89,34.99-17.48,36c-9.92,0.51-20.54-1.59-28.68-7.34c-3.72-2.63-15.86-16.76-21-15.25
		c-2.54,0.74-6.72,9.84-8.66,12.21c-3.83,4.69-8.34,8.95-13.39,12.32C2246.14,9473.23,2235.73,9477.23,2226.39,9473.75z"/>
	<path d="M2116.42,9312.83c-21.58-4.59-42.14-23.27-54.6-40.71c-13.6-19.05-23.43-41.47-32-63.16
		c-12.67-32.05-24.05-64.6-36.86-96.62c-1.75,35.01,5.09,71.13,10.38,105.59c3.16,20.54,9.76,42.2,9.84,63.01
		c0.06,14.56-9.65,24.14-24.09,24.9c-15.47,0.82-33.76-5.8-44.78-16.76c-12.21-12.14-12.93-32.42-15.16-48.48
		c-5.26-37.88-8.74-76.5-9.81-114.73c-0.88-31.54-4.4-67.15,4.11-97.99c5.68-20.6,19.85-31.62,41.05-34.16
		c11.18-1.34,32.78-0.93,36.55,12.57c4.68,16.74-0.32,35.52,3.49,52.6c4.52,20.26,12.65,40.25,19.96,59.62
		c9.71,25.71,20.3,51.09,31.44,76.21c10.85,24.45,20.61,50.98,38.23,71.53c6.13,7.15,14.09,15.32,23.01,7.21
		c7.12-6.48,8.28-16.21,10.06-25.2c1.68-8.51,3.18-18.81,10.78-24.26c8.48-6.08,22.6-7.04,32.38-5.15
		c29,5.62,19.42,45.47,10.09,64.37C2169.19,9306.14,2141.18,9317.99,2116.42,9312.83z"/>
	<path d="M2711.92,9304.54c-58.22-11.74-94.97-68.44-101.59-124.73c-6.61-56.16,11.54-128.12,59.67-162.44
		c46.22-32.96,120.75-14.61,160.42,21.07c6.69,6.02,17.67,15.65,14.48,25.84c-2.56,8.16-12.16,8.95-18.69,5.23
		c-10.66-6.07-18.5-16.68-28.9-23.36c-11.6-7.45-25.33-12.04-38.62-15.38c-12.64-3.17-22.36-2.6-32.99,5.59
		c-12.19,9.4-20.61,23.99-26.23,38.08c-9.76,24.44-10.92,50.83-12.19,76.79c49.4,0,103.19,23.6,111.36,77.88
		c3.45,22.9,0.14,48.4-19.08,63.64C2761.53,9307.05,2733.74,9308.79,2711.92,9304.54z M2761.76,9267.96
		c11.06-6.51,10.78-24.7,8.84-35.48c-2.28-12.66-9.13-24.29-17.73-33.71c-8.29-9.08-18.47-16.51-30.35-19.96
		c-6.14-1.78-22.46-7.41-28.69-4.14c-5.06,2.65-0.25,13.17,0.99,18.03c3.4,13.26,7.98,25.92,14.32,38.08
		C2718.22,9248.22,2736.76,9282.25,2761.76,9267.96z"/>
	<path d="M2382.56,9303.33c-17.93-3.84-31.12-13.08-37.02-30.5c-4.31-12.73-4.78-26.76-5.47-40.06
		c-2.41-46.52-4.14-93.85,9.15-139.02c11.87-40.35,47.69-97.43,95.45-98.11c22.1-0.31,35.64,16.67,47.09,33.27
		c13.6,19.71,26.06,40.16,37.86,60.99c22.11,39.04,40.98,77.92,53.12,121.17c3.22,11.48,6.67,22.93,9.57,34.5
		c2.96,11.8,7.12,27.31,5.05,39.65c-1.56,9.24-9.71,12.96-18.6,10.63c-8.45-2.22-10.14-9.25-10.98-16.99
		c-2.53-23.32-5.72-44.85-13.33-67.21c-9.51-27.92-20.75-55.41-33.08-82.2c-10.04-21.8-21.08-43.19-33.86-63.52
		c-5.5-8.74-11.33-17.29-17.57-25.52c-5.6-7.39-12.22-21.62-22.52-13.23c-21.06,17.16-24.77,49.3-27.53,74.07
		c-3.08,27.56-0.76,53.43,1.43,80.91c2.21,27.73,4.7,55.59,6.3,83.35c0.63,10.93,2.77,26.13-7.88,33.01
		C2410.16,9304.71,2393.38,9304.87,2382.56,9303.33z"/>
	<path d="M2255.13,9298.46c-46.44-11.87-38.7-81.38-42.77-116.6c-5.52-47.8-10.13-98.91-2.1-146.7c1.46-8.72,2.47-19.34,7.97-26.66
		c5.76-7.66,16.01-11.86,24.93-14.32c8.21-2.26,18.34-4.09,26.67-1.49c10.59,3.31,11.84,14.19,12.58,23.84
		c2.39,30.87,1.1,62.13,2.27,93.08c1.09,29.06,3.41,57.93,6.3,86.86c1.4,13.99,2.69,27.97,4.49,41.92
		c1.58,12.27,4.17,24.82,3.88,37.25C2298.86,9296.34,2272.2,9302.64,2255.13,9298.46z"/>
	<path d="M255.44,9271.94c-16.4-6.41-21.68-22.12-28.06-36.78c-10.81-24.83-21.34-49.78-31.84-74.74
		c-18.21-43.27-36.79-86.44-54.38-129.97c-3.97-9.83-8.26-21.62-2.49-31.63c5.29-9.18,16.89-15.85,27.53-14.03
		c19.28,3.3,24.86,29.94,30.9,45.02c2.7,6.75,5.38,13.51,8.08,20.27c1.95,4.88,1.08,3.99,5.49,4.7c13.91,2.22,29.8,0.16,43.9,0.23
		c22.62,0.12,45.25,0.19,67.87,0.27c2.18,0.01,8.86,1.21,10.63-0.04c3.09-2.18,5.4-13.03,6.83-16.49
		c6.19-14.95,11.27-31.36,19.9-45.08c13.78-21.89,48.39-2.68,45.82,20.54c-1.04,9.44-6.33,19.06-9.83,27.7
		c-16.31,40.18-33.21,80.13-49.86,120.17c-10.39,24.97-20.81,49.93-31.47,74.79c-6.12,14.28-12.79,31.08-29.52,35.74
		C276.34,9275,263.84,9275.34,255.44,9271.94z M292.46,9154.34c5.86-14.41,11.34-29.02,18.03-43.06c3.78-7.94,4.73-9.23-3.35-9.4
		c-15.7-0.32-31.42-0.18-47.13-0.15c-3.65,0.01-7.29,0.02-10.94,0.08c-3.85,0.07-18.71-1.7-21.47,1.07
		c-3.07,3.08,11.78,32.85,14.04,38.44c6.35,15.66,12.81,31.26,19.21,46.9c1.48,3.61,3.62,14.86,6.67,17.62
		c3.66,3.31,4.72-0.59,6.21-4.45C279.84,9185.67,286.09,9169.98,292.46,9154.34z"/>
	<path d="M714,9272.05c-14.09-6.5-13.01-23.7-13.2-36.44c-0.36-24.38-0.27-48.78-0.24-73.17c0.05-49.9-0.94-100.01,0.87-149.89
		c0.15-4.08-0.07-8.69,1.34-12.6c8.35-23.18,39.49-17.63,44.78,4.13c2.14,8.81,1.16,18.86,1.3,27.82
		c0.06,3.63-2.04,21.25,0.41,23.41c1.89,1.66,12.57,0,15,0c9.91,0,19.82,0,29.74,0c30.33,0,60.66,0,90.98,0
		c0-8.69-0.05-17.38,0.01-26.07c0.08-11.06-1.04-25.28,5.76-34.83c9.08-12.74,28.26-12.56,37.22,0.11
		c4.94,6.99,4.77,16.38,5.13,24.61c0.54,12.06-0.01,24.14-0.05,36.21c-0.17,46.69-0.23,93.4,0.02,140.09
		c0.06,11.19,0.27,22.38,0.06,33.56c-0.18,9.57,0.73,21.55-2.73,30.68c-5.98,15.79-26.29,18.76-37.72,7.36
		c-5.87-5.86-6.26-13.05-6.69-21.07c-1.31-23.98-0.71-48.13-0.81-72.13c-0.09-20.32-0.18-40.63-0.27-60.95
		c-0.01-3.43,1.18-9.68-1.24-11.15c-1.54-0.94-6.51,0-8.32,0c-5.5,0-11.01,0-16.51,0c-36.61,0-73.21,0-109.82,0
		c0,29.38,0.02,58.77-0.01,88.15c-0.02,18.98,0.64,38.18-0.67,57.14C747.16,9264.53,733.15,9280.81,714,9272.05z"/>
	<path d="M450.29,9268.18c-21.99-5.93-17.67-34.7-17.84-51.85c-0.21-22.38-0.05-44.77-0.08-67.15c-0.03-23.36-0.06-46.73,0-70.09
		c0.05-20.85-1.24-42.18,0.74-62.96c1.95-20.5,11.97-25.62,30.27-26.37c32-1.3,64.86-2.14,96.82,0.36
		c19.75,1.54,39.01,7.28,54.01,20.83c25.57,23.1,37.93,55.77,40.94,89.6c5.02,56.27-1.9,138.58-64.13,161.95
		c-23.68,8.9-50.74,7.15-75.6,7.2c-14.04,0.02-28.09-0.06-42.13-0.36C466.07,9269.19,457.35,9270.09,450.29,9268.18z
		 M544.46,9224.41c12.13-1.36,25.5-3.49,35.39-11.2c10.16-7.92,16.74-20.01,20.83-32.01c8.38-24.58,8.08-54.01,4.57-79.47
		c-3.12-22.63-11.59-50.2-33.38-61.51c-13.72-7.12-29.98-5.85-44.97-5.9c-15.11-0.05-30.22-0.01-45.33-0.01
		c0,50.45,0,100.89,0,151.34c0,13.29,0,26.58,0,39.87C502.45,9225.52,523.66,9226.41,544.46,9224.41z"/>
	<path d="M1005.11,9268.18c-17.54-4.87-17.32-22.83-17.63-37.78c-0.41-20.17-0.25-40.34-0.26-60.52
		c-0.02-40.1,0.26-80.21,0.04-120.31c-0.08-14.44-3.83-37.85,5.35-50.11c9.79-13.06,30.9-10.38,45.23-10.22
		c34.56,0.37,73.53-5.43,106.56,6.91c58.64,21.92,67.78,92.36,66.42,146.4c-1.44,57.18-27.13,117.73-89.9,125.67
		c-20.27,2.57-41.3,1.53-61.68,1.46c-11.55-0.04-23.1-0.14-34.65-0.43C1018.44,9269.11,1011.12,9269.81,1005.11,9268.18z
		 M1099.28,9224.41c26.6-2.78,44.92-13.67,54.74-39.33c8.88-23.22,8.45-49.55,7.04-74.03c-1.33-23.15-8.71-52.79-28.5-67.27
		c-13.14-9.61-28.91-9.27-44.51-9.41c-17.22-0.16-34.44-0.05-51.65-0.05c0,50.45,0,100.89,0,151.34c0,13.29,0,26.58,0,39.87
		C1057.27,9225.52,1078.49,9226.41,1099.28,9224.41z"/>
	<path d="M1569.55,8924.45c-15.94-7.12-5.68-30.9,10.45-26.47C1598.85,8903.18,1588.46,8932.49,1569.55,8924.45z"/>
	<path d="M2041.15,8924.12c-16.81-8.28-3.3-32.16,13.12-25.52C2072.34,8905.9,2058.92,8932.87,2041.15,8924.12z"/>
	<path d="M1934.94,8886.21v-13.26c-7,0-14,0-21,0c0-5.89,0-11.79,0-17.68c3.2,0,19.34,1.56,20.89-0.5c1.12-1.49,0.07-7.87,0.08-9.73
		c0.05-6.03,0.1-12.07,0.15-18.1c0.14-17.25-3-37.54,2-54.17c3.99-13.29,15.84-21.33,29.08-23.05c9.29-1.2,19.41-0.31,27.97,3.68
		c7.44,3.46,6.05,7.82,2.12,14.42c-3.95,6.63-6.45,2.19-12.9,0.71c-7.96-1.83-17.45-0.43-22.58,6.57
		c-2.92,3.99-2.85,8.03-3.05,12.97c-0.89,22.36-0.57,44.83-0.76,67.21c11.83,0,23.65,0,35.48,0c0,5.89,0,11.79,0,17.68
		c-11.79,0-23.58,0-35.37,0c0,8.84,0,17.68,0,26.53c-7.37,0-14.74,0-22.1,0V8886.21z"/>
	<path d="M2114.87,8886.54c-0.06-2.2,1.08-11.7-0.33-13.04c-1.56-1.49-9.24-0.3-11.77-0.38c-6.34-0.21-8.37,1.66-8.67-4.65
		c-0.21-4.38,0-8.83,0-13.21c2.81,0,19.05,1.81,20.89,0c2.26-2.22,0.15-18.1,0.17-21.26c0.11-13.87,0.23-27.73,0.34-41.6
		c0.05-5.85-1.07-13.18,0.38-18.84c2.74-10.72,13.1-19.12,23.13-22.36c11.9-3.84,24.16-2.3,35.38,2.75
		c5.61,2.52,5.45,1.34,4.44,6.38c-0.86,4.27-3.56,8.74-5.27,12.81c-9.84-5.02-25.01-9.35-32.94,1.35
		c-4.01,5.41-3.76,11.99-3.95,18.43c-0.6,20.76-0.5,41.57-0.69,62.34c11.83,0,23.65,0,35.48,0c0,4.42,0.76,9.76,0,14.14
		c-0.63,3.62,0.74,2.15-1.5,3.47c-1.74,1.03-6.97,0.13-9.02,0.17c-5.86,0.11-22.1-1.8-24.33,1.82c-1.76,2.85-0.27,10.77-0.37,14.48
		c-0.18,7.16,2.07,10.14-5.45,10.14c-2.94,0-12.52,1.47-14.55,0C2113.95,8897.82,2114.97,8890.14,2114.87,8886.54z"/>
	<path d="M2386.76,8886.54c-0.06-2.2,1.08-11.7-0.33-13.04c-1.56-1.49-9.24-0.3-11.77-0.38c-6.34-0.21-8.37,1.66-8.67-4.65
		c-0.21-4.38,0-8.83,0-13.21c2.81,0,19.05,1.81,20.89,0c2.26-2.22,0.15-18.1,0.17-21.26c0.11-13.87,0.23-27.73,0.34-41.6
		c0.05-5.85-1.07-13.18,0.38-18.84c2.74-10.72,13.1-19.12,23.13-22.36c11.9-3.84,24.16-2.3,35.38,2.75
		c5.61,2.52,5.45,1.34,4.44,6.38c-0.86,4.27-3.56,8.74-5.27,12.81c-9.84-5.02-25.01-9.35-32.94,1.35
		c-4.01,5.41-3.76,11.99-3.95,18.43c-0.6,20.76-0.5,41.57-0.69,62.34c11.83,0,23.65,0,35.48,0c0,4.42,0.76,9.76,0,14.14
		c-0.63,3.62,0.74,2.15-1.5,3.47c-1.74,1.03-6.97,0.13-9.02,0.17c-5.86,0.11-22.1-1.8-24.33,1.82c-1.76,2.85-0.27,10.77-0.37,14.48
		c-0.18,7.16,2.07,10.14-5.45,10.14c-2.94,0-12.52,1.47-14.55,0C2385.83,8897.82,2386.85,8890.14,2386.76,8886.54z"/>
	<path d="M1691.79,8873.28c-13.28-2.24-22.55-9.55-32.05-18.46c0,6.04,0,12.08,0,18.13c-7,0-14,0-21,0c0-40.89,0-81.79,0-122.68
		c3.02,0,20.16-1.82,22,0.13c1.11,1.18,0.08,8.88,0.09,10.43c0.05,6.07,0.1,12.14,0.16,18.21c0.05,6.16,0.11,12.32,0.16,18.48
		c0.08,9.07-1.72,20.37,0.25,29.23c5.93,26.69,45.69,38.49,64.07,17.48c12.38-14.16,7.94-39.51,8.13-56.32
		c0.06-5.29,0.12-10.59,0.18-15.89c0.06-5.38-1.48-13.72,0.21-18.83c1.39-4.2,1.38-2.93,7.13-2.93c4.56,0,9.12,0,13.68,0
		c0,26.72,1.41,54-0.87,80.62C1751.15,8863.14,1722.87,8877.72,1691.79,8873.28z"/>
	<path d="M1825.86,8871.85c-22.59-5.92-41.78-29.88-25.71-52.63c11.22-15.88,34.95-14.82,51.89-19.4c6.59-1.78,16.57-4.4,19.94-11.1
		c4.67-9.3-6.42-17.37-14.29-19.14c-12.36-2.79-27.02-1.26-39.01,2.4c-4.51,1.38-12.44,7.3-17.11,7.07
		c-3.98-0.2-4.79-4.03-6.54-7.39c-0.77-1.48-4.38-6.2-4.14-7.86c0.3-2.02,5.76-4.43,7.63-5.35c11.4-5.56,24.53-8.41,37.15-8.91
		c22.72-0.9,52.34,4.88,58.41,31.1c5.73,24.74-19.64,34.04-38.39,38.01c-10.15,2.15-22.47,2.39-31.55,7.89
		c-8.05,4.88-10.48,15.56-2.93,22.19c8.72,7.65,24.72,7.22,35.35,5.88c7.26-0.92,13.51-3.45,20.23-6.2c6.8-2.78,6.54,1.65,9.84,8.09
		c2.17,4.22,3.71,5.58,0.45,8.79c-3.49,3.45-12.09,4.6-16.63,5.79C1856.35,8874.78,1840.08,8875.49,1825.86,8871.85z"/>
	<path d="M2518.06,8872.29c-28.55-7.06-45.66-34.57-44.6-62.9c0.98-26.29,16.5-48.07,41.68-56.37c21.61-7.12,48.13-5.01,66.01,9.96
		c1.33,1.11,6.24,4.4,6.32,5.75c0.1,1.58-4.72,5.5-5.86,6.85c-3.66,4.35-4.6,6.9-9.85,4.16c-6.12-3.2-10.34-7.47-17.3-9.46
		c-26.45-7.58-54.51,6.28-59.4,34.15c33.23,0,66.46,0,99.69,0c0,19.23-2.51,37.43-16.4,52
		C2563.2,8872.32,2539.14,8877.42,2518.06,8872.29z M2550.44,8852.84c12.72-4.77,23.67-19.24,23.32-32.94c-26.27,0-52.54,0-78.8,0
		C2499.17,8846.74,2524.32,8862.57,2550.44,8852.84z"/>
	<path d="M1564.69,8811.61v-61.34c7.37,0,14.74,0,22.1,0c0,40.89,0,81.79,0,122.68c-7.37,0-14.74,0-22.1,0V8811.61z"/>
	<path d="M2037.73,8811.61v-61.34c7,0,14,0,21,0c0,40.89,0,81.79,0,122.68c-7,0-14,0-21,0V8811.61z"/>
	<path d="M2215.67,8833.49c0-22.88-4.08-52.65,13.8-70.53c11.12-11.12,28-14.76,43.26-13.55c7.97,0.64,16,2.79,22.98,6.75
		c2.48,1.41,11.62,11.78,14.46,11.78c0.89,0,0.55-16.68,0.55-17.68c6.63,0,13.26,0,19.89,0c0,40.89,0,81.79,0,122.68c-7,0-14,0-21,0
		c0-11.39,0.03-22.79,0-34.18c-0.06-21.35,3.58-50.58-17.08-64.17c-15.67-10.3-42.32-7.63-51.17,10.47
		c-6.56,13.41-3.57,33.27-3.58,47.52c-0.01,13.45,0,26.9,0,40.35c-7.37,0-14.74,0-22.1,0V8833.49z"/>
</g>
</svg>
